<svg width="14" height="8" viewBox="0 0 14 8" fill="none" xmlns="http://www.w3.org/2000/svg">
<path d="M12.6223 0.32463L6.99957 6.11013L1.37682 0.32463C1.27636 0.221045 1.1415 0.163053 1.00107 0.163053C0.860633 0.163053 0.725773 0.221045 0.625317 0.32463C0.576674 0.374938 0.538031 0.434985 0.511649 0.501254C0.485268 0.567524 0.47168 0.638685 0.47168 0.710568C0.47168 0.78245 0.485268 0.853611 0.511649 0.91988C0.538031 0.98615 0.576674 1.0462 0.625317 1.0965L6.60694 7.2525C6.71199 7.36058 6.85288 7.42107 6.99957 7.42107C7.14626 7.42107 7.28715 7.36058 7.39219 7.2525L13.3738 1.09769C13.4228 1.04735 13.4617 0.987153 13.4883 0.920663C13.5149 0.854174 13.5286 0.782737 13.5286 0.710568C13.5286 0.638399 13.5149 0.566961 13.4883 0.500471C13.4617 0.433982 13.4228 0.373788 13.3738 0.323442C13.2734 0.219857 13.1385 0.161865 12.9981 0.161865C12.8576 0.161865 12.7228 0.219857 12.6223 0.323442V0.32463Z" fill="white"/>
</svg>
