<svg width="20" height="20" viewBox="0 0 20 20" fill="none" xmlns="http://www.w3.org/2000/svg">
<path d="M20 9.9999C20 4.47705 15.5229 -9.91821e-05 10 -9.91821e-05C4.47715 -9.91821e-05 0 4.47705 0 9.9999C0 14.9912 3.65686 19.1282 8.4375 19.8784V12.8905H5.89844V9.9999H8.4375V7.79678C8.4375 5.29053 9.93043 3.90615 12.2146 3.90615C13.3087 3.90615 14.4531 4.10146 14.4531 4.10146V6.5624H13.1921C11.9499 6.5624 11.5625 7.33324 11.5625 8.12406V9.9999H14.3359L13.8926 12.8905H11.5625V19.8784C16.3431 19.1282 20 14.9912 20 9.9999Z" fill="white"/>
</svg>
