<svg width="46" height="46" viewBox="0 0 46 46" fill="none" xmlns="http://www.w3.org/2000/svg">
<path fill-rule="evenodd" clip-rule="evenodd" d="M14.3868 31.6153C23.038 40.2666 31.0548 41.2138 33.4083 41.3016C36.2523 41.4051 39.1548 39.0831 40.4103 36.7048C38.4078 34.3558 35.8 32.5333 32.9448 30.5578C31.2595 32.2408 29.1828 35.3683 26.4175 34.2478C24.8448 33.6156 20.9613 31.8268 17.5683 28.4316C14.173 25.0386 12.3865 21.1551 11.7498 19.5846C10.6293 16.8148 13.7658 14.7336 15.451 13.0483C13.4755 10.1458 11.6845 7.47056 9.34001 5.56931C6.92801 6.82931 4.59251 9.70931 4.69826 12.5916C4.78601 14.9451 5.73326 22.9618 14.3868 31.6153ZM33.2418 45.7993C30.0018 45.6801 20.8195 44.4111 11.203 34.7968C1.58876 25.1803 0.322005 16.0003 0.200505 12.7581C0.0205054 7.81706 3.80501 3.01781 8.17676 1.14356C8.7032 0.916233 9.27971 0.829684 9.8497 0.892403C10.4197 0.955121 10.9636 1.16495 11.428 1.50131C15.046 4.14056 17.5413 8.13881 19.6855 11.2708C20.1316 11.9221 20.3359 12.7088 20.2632 13.4948C20.1905 14.2808 19.8452 15.0167 19.2873 15.5751L16.2363 18.6283C16.945 20.1921 18.3873 22.8876 20.7498 25.2501C23.1123 27.6126 25.8078 29.0548 27.3738 29.7636L30.4225 26.7126C30.983 26.1534 31.722 25.8086 32.5106 25.7383C33.2992 25.668 34.0874 25.8766 34.738 26.3278C37.933 28.5418 41.686 31.0011 44.422 34.5043C44.7857 34.9721 45.017 35.529 45.0918 36.1167C45.1666 36.7045 45.0822 37.3016 44.8473 37.8456C42.964 42.2398 38.1985 45.9816 33.2418 45.7993Z" fill="black"/>
</svg>
