<svg width="39" height="51" viewBox="0 0 39 51" fill="none" xmlns="http://www.w3.org/2000/svg">
<path fill-rule="evenodd" clip-rule="evenodd" d="M33.8438 19.1248C33.8504 22.1983 32.8631 25.1915 31.0292 27.6578L19.5 43.0311L7.97081 27.6578C6.62093 25.834 5.72295 23.716 5.35066 21.4778C4.97836 19.2395 5.14235 16.9449 5.82918 14.7824C6.516 12.6198 7.70606 10.6511 9.30159 9.03784C10.8971 7.42459 12.8526 6.21286 15.0074 5.5022C17.1623 4.79153 19.4549 4.60221 21.6971 4.94976C23.9393 5.29732 26.0671 6.17185 27.9057 7.50151C29.7442 8.83118 31.2411 10.578 32.2734 12.5986C33.3057 14.6192 33.8438 16.8558 33.8438 19.1248ZM38.625 19.1248C38.625 23.3961 37.2257 27.3358 34.8638 30.517L22.4867 47.0154L19.5 50.9998L16.5101 47.0154L4.13625 30.517C2.33431 28.0862 1.13482 25.2627 0.636331 22.2782C0.137841 19.2938 0.354581 16.2337 1.26874 13.3493C2.1829 10.4649 3.76839 7.83862 5.89494 5.68616C8.0215 3.5337 10.6284 1.91652 13.5015 0.967495C16.3746 0.0184709 19.4319 -0.235312 22.4221 0.226999C25.4124 0.68931 28.2503 1.85452 30.7026 3.62689C33.155 5.39926 35.1518 7.72821 36.529 10.4224C37.9063 13.1165 38.6246 16.099 38.625 19.1248ZM19.5 25.4998C21.1908 25.4998 22.8123 24.8282 24.0078 23.6326C25.2034 22.4371 25.875 20.8156 25.875 19.1248C25.875 17.4341 25.2034 15.8126 24.0078 14.617C22.8123 13.4215 21.1908 12.7498 19.5 12.7498C17.8092 12.7498 16.1877 13.4215 14.9922 14.617C13.7967 15.8126 13.125 17.4341 13.125 19.1248C13.125 20.8156 13.7967 22.4371 14.9922 23.6326C16.1877 24.8282 17.8092 25.4998 19.5 25.4998Z" fill="black"/>
</svg>
