<svg width="22" height="16" viewBox="0 0 22 16" fill="none" xmlns="http://www.w3.org/2000/svg">
<path fill-rule="evenodd" clip-rule="evenodd" d="M19.5949 0.459993C20.5421 0.713533 21.2865 1.45785 21.54 2.40501C21.9982 4.12002 22 7.70036 22 7.70036C22 7.70036 22 11.2807 21.54 12.9957C21.2865 13.9429 20.5421 14.6872 19.5949 14.9407C17.88 15.4007 11 15.4007 11 15.4007C11 15.4007 4.12002 15.4007 2.405 14.9407C1.45785 14.6872 0.713533 13.9429 0.459993 12.9957C1.37693e-07 11.2807 0 7.70036 0 7.70036C0 7.70036 1.37693e-07 4.12002 0.459993 2.40501C0.713533 1.45785 1.45785 0.713533 2.405 0.459993C4.12002 1.37693e-07 11 0 11 0C11 0 17.88 1.37693e-07 19.5949 0.459993ZM14.5134 7.70067L8.79788 11.0003V4.40101L14.5134 7.70067Z" fill="white"/>
</svg>
